<svg xmlns="http://www.w3.org/2000/svg" fill="none" viewBox="0 0 679 208">
  <g fill="#fff" clip-path="url(#a)">
    <path d="M679 139.813V208H11.038l-.037-.291L679 139.813ZM144.15 53.758a19.02 19.02 0 0 1 2.22-.612c9.575-.971 19.151-1.925 28.915-2.901l43.187 63.051 1.307-.29V45.841l29.255-2.93v123.293l-30.985 3.265-43.292-63.253-.928.176v67.349l-29.679 3.032V53.758Zm309.302 27.415c11.112 3.578 17.646 10.46 19.327 21.32 3.542 22.891-8.741 40.629-31.682 44.071-18.522 2.779-37.269 4.068-55.918 5.998-4.109.425-8.227.77-12.39 1.156V30.408c14.048-1.423 27.53-2.841 41.024-4.136 8.407-.807 16.822-1.834 25.251-2.044 14.698-.367 24.233 5.266 28.199 15.893 4.82 12.914.963 28.767-9.1 37.328-1.257 1.07-2.588 2.05-4.711 3.724Zm-50.432 42.116c7.01-.618 13.775-.959 20.456-1.894a46.543 46.543 0 0 0 12.819-3.314c4.674-2.135 6.785-8.153 5.472-13.233-1.292-5.002-4.907-7.665-9.869-7.443-9.545.427-19.066 1.395-28.878 2.16v23.724Zm.248-68.885v22.46c8.158-.929 15.93-1.5 23.565-2.847a17.201 17.201 0 0 0 8.035-4.398 8.965 8.965 0 0 0 1.711-11.397c-1.526-2.52-5.237-5.139-8.033-5.206-8.365-.202-16.761.83-25.278 1.388Zm113.567 8.705 56.022-5.455v27.75l-56.291 5.706v18.811l61.471-5.98v29.545l-91.751 9.173V19.198l91.056-9.03v29.574l-60.507 6.1v17.267ZM267.692 40.93l91.058-9.06v29.556l-60.512 6.145v17.253l56.04-5.467V107.1l-56.303 5.741v18.836l61.352-6.04v29.617l-91.635 9.078v-123.4Zm348.234-6.062-31.812 2.962V9.38L678.227 0v28.496l-32.214 3.368v94.693l-30.087 3.059V34.868ZM0 191.028V67.625l30.089-2.978v93.366l53.875-5.267v29.947L0 191.028Zm125.195-12.592-29.75 2.94V58.068l29.75-3.124v123.492Z"/>
  </g>
  <defs>
    <clipPath id="a">
      <path fill="#fff" d="M0 0h679v208H0z"/>
    </clipPath>
  </defs>
</svg>
