<svg width="106" height="30" viewBox="0 0 106 30" fill="none" xmlns="http://www.w3.org/2000/svg"><g clip-path="url(#clip0_5202_4502)"><path d="M15.692 19.179l1.593-8.197-.089-.045-1.211 1.679c-1.473 2.069-2.95 4.135-4.41 6.213a.736.736 0 01-.712.357c-.6-.025-1.202-.03-1.8 0-.357.02-.505-.1-.61-.44-.463-1.495-.955-2.983-1.438-4.474-.36-1.108-.726-2.216-1.19-3.32-.191.971-.381 1.942-.57 2.914L4.29 18.85c-.03.163-.046.324-.283.323H0c.159-.895.294-1.726.455-2.553a2860.88 2860.88 0 011.708-8.75c.452-2.31.918-4.612 1.35-6.931.066-.358.217-.428.534-.424C5.165.53 6.283.542 7.4.51c.38-.011.505.154.596.462.746 2.493 1.498 4.982 2.257 7.468.35 1.16.704 2.317 1.077 3.541.414-.427.668-.894.966-1.324a3331.5 3331.5 0 006.726-9.72c.196-.286.384-.426.745-.42 1.243.025 2.485.01 3.792.01-.164.83-.322 1.608-.472 2.388-.554 2.878-1.107 5.757-1.659 8.635l-1.388 7.17c-.06.32-.161.484-.555.473-1.238-.038-2.477-.015-3.793-.015z" fill="#fff"/><path d="M50.022 14.91c.162-.822.328-1.645.497-2.467.358-1.811.725-3.615 1.073-5.432.317-1.651.605-3.307.923-4.957.08-.42.226-.83.248-1.265a.265.265 0 01.279-.271c.144-.008.29 0 .435 0 3.623 0 7.247-.017 10.87.008 1.351.01 2.609.374 3.552 1.427 1.06 1.172 1.421 2.543 1.159 4.113-.235 1.41-1.016 2.493-1.96 3.484-.24.249-.274.412-.101.716a5.01 5.01 0 01.68 2.52c0 1.28-.521 2.367-1.228 3.364a7.402 7.402 0 01-4.285 2.942c-.243.053-.49.075-.738.067h-9.319a3.097 3.097 0 01-.366-.049 3.47 3.47 0 01.052-.548c.224-1.06.432-2.119.641-3.187.086-.436.076-.449-.372-.456-.684-.003-1.362-.004-2.04-.009zm4.261-.024c.197.089.386.05.569.05h6.71c.912 0 1.63-.564 1.824-1.44a1.137 1.137 0 00-.417-1.216 1.227 1.227 0 00-.81-.231c-1.51.007-3.02.007-4.53 0-.426 0-.45-.051-.36-.468.239-1.121.475-2.243.709-3.365.102-.483.104-.49.598-.498h4.406a1.845 1.845 0 001.784-1.349c.21-.76-.303-1.524-1.072-1.53-2.379-.014-4.76 0-7.139-.007-.21 0-.312.035-.356.29-.199 1.131-.436 2.254-.641 3.382-.394 2.139-.848 4.259-1.275 6.383z" fill="#FCB912"/><path d="M21.031 19.11l.814-4.191 1.681-8.628c.345-1.784.697-3.566 1.018-5.36.064-.356.22-.42.535-.417 1.573.012 3.147 0 4.721 0h10.064c.1 0 .202-.01.307-.013a.364.364 0 01.373.407c-.046.374-.167.737-.228 1.109-.124.774-.317 1.537-.439 2.312-.054.35-.159.466-.541.463-3.54-.02-7.082-.012-10.62-.012-.105 0-.208.007-.311 0-.248-.017-.363.069-.409.337-.146.85-.325 1.695-.504 2.606h9.063c-.263 1.338-.528 2.608-.756 3.886-.065.36-.249.392-.55.391-2.568-.01-5.136-.006-7.704-.006h-.248c-.645 0-.643 0-.76.644-.132.73-.27 1.46-.403 2.191 0 .016.011.035.02.06.213.096.443.045.667.046h10.372c.62 0 .62 0 .497.632-.202 1.053-.404 2.106-.608 3.158-.048.25-.098.448-.453.448-5.156-.015-10.31-.02-15.465-.017-.02.015-.038 0-.133-.046z" fill="#fff"/><path d="M83.024 7.725c.108.666-.177 1.2-.248 1.77-.09.748-.312 1.484-.441 2.23-.046.266-.144.338-.395.334-.622-.015-1.243 0-1.864 0H73.74c-.527 0-.523 0-.622.533-.144.765-.291 1.53-.438 2.302.215.092.446.045.67.045h10.374c.667 0 .697.008.551.668a81.853 81.853 0 00-.613 3.14c-.055.308-.2.432-.537.43-5.01-.01-10.022-.012-15.033-.008-.475 0-.516-.045-.428-.488.261-1.306.543-2.607.8-3.913.318-1.63.62-3.264.932-4.894.434-2.234.88-4.466 1.316-6.7.149-.763.297-1.53.416-2.3.04-.258.137-.374.391-.362h.435c3.976 0 14.268-.023 14.922 0 .287.01.302.166.256.366-.249 1.099-.446 2.21-.65 3.319-.124.65-.14.648-.791.649h-5.65c-1.657 0-3.313.006-4.97 0-.311 0-.424.052-.509.409-.17.719-.26 1.452-.44 2.167-.052.2 0 .323.235.314h8.667v-.011zm8.141 11.444L93.929 4.9c-.19-.112-.4-.056-.6-.057h-5.586c-.236 0-.308-.083-.248-.347.132-.6.18-1.221.328-1.817.137-.558.216-1.122.335-1.689.096-.456.096-.47.552-.473h16.075c.145.008.289.008.434 0 .32-.038.344.158.299.383-.239 1.206-.497 2.406-.723 3.615-.067.367-.297.333-.545.333h-5.275c-.753 0-.753 0-.907.766-.36 1.787-.731 3.572-1.08 5.36-.512 2.613-1.015 5.23-1.51 7.851-.036.188-.016.36-.3.358-1.321-.021-2.642-.015-4.013-.015z" fill="#FCB912"/><path d="M50.021 14.91c.678 0 1.357.006 2.034.018.452.007.462.02.373.456a231.466 231.466 0 01-.641 3.187 3.42 3.42 0 00-.053.548c-.175.091-.365.059-.549.059H38.581c-.16 0-.33.047-.497-.064l1.64-8.498c.612-3.163 1.226-6.325 1.843-9.487.023-.124.052-.24.074-.362a.252.252 0 01.085-.19.247.247 0 01.2-.06c1.319.008 2.639 0 4.009 0-.936 4.823-1.864 9.579-2.778 14.313.082.134.19.111.29.111h6.27c.102-.004.203-.014.304-.03zm.827 10.31l.249-1.331h-3.299l-.948 4.886-.155.099h-1.313l-.109-.099 1.182-6.12.157-.137h5.623a.372.372 0 01.238.093.77.77 0 01.187.23c.05.094.085.195.107.299a.671.671 0 010 .289l-.44 2.252a.958.958 0 01-.125.294 1.725 1.725 0 01-.22.294c-.08.088-.172.166-.273.23a.522.522 0 01-.273.093h-3.673l-.078-.107.225-1.156.124-.108h2.814zm.216 3.468l.069-.177 4.324-5.993h1.412l1.988 5.896c.024.062.031.13.02.196l-.02.137c-.014.032-.026.062-.039.087a.08.08 0 01-.078.04h-1.438l-1.366-4.417-.05-.01-2.05 2.85-.019.117c-.013.053 0 .079.039.079h2.45l.078.125-.225 1.155-.117.098h-4.93c-.026 0-.043-.022-.053-.068a.192.192 0 01.005-.115zm14.486.186h-1.415a.208.208 0 01-.058-.044c-.032-.03-.052-.047-.058-.055l-2.032-3.309a.408.408 0 01.083-.167.21.21 0 01.172-.078h2.454l.088-.107.233-1.226h-3.312l-.948 4.887-.155.099h-1.308l-.108-.099 1.181-6.12.157-.137h5.623a.372.372 0 01.238.093.77.77 0 01.187.23c.05.094.085.195.107.299a.671.671 0 010 .289l-.479 2.457a.67.67 0 01-.273.3 2.343 2.343 0 01-.455.225 3.61 3.61 0 01-.888.21l.03.098.458.774h.742l.117.147-.205 1.087-.175.147zm7.752-5.133l-.165.148H70.95l-.938 4.849-.107.137h-1.358l-.108-.147.938-4.838h-2.225l-.049-.137.216-1.107.106-.125H73.4l.107.137-.205 1.083zm1.844 1.133l-.746 3.864-.117.137H72.92l-.098-.147 1.182-6.12.146-.09h1.132l.157.07 3.123 3.907.746-3.889.156-.088h1.308l.109.088-1.176 6.132-.124.137h-1.17l-.147-.147-3.118-3.854zm6.229-2.268l.146-.088h5.964l.068.124-.213 1.11-.125.138h-4.424l-.118.147-.644 3.32.06.135h4.423l.077.137-.215 1.109-.124.137h-5.964l-.097-.147 1.186-6.122zm5.094 2.508l-.225 1.165-.124.107h-3.41l-.068-.107.225-1.165.117-.109h3.406l.079.109zm6.749 3.76H91.8a.207.207 0 01-.058-.044c-.032-.03-.052-.047-.058-.055l-2.03-3.309a.389.389 0 01.082-.167.208.208 0 01.17-.078h2.451l.088-.107.234-1.226H89.37l-.945 4.887-.156.099h-1.31l-.108-.099 1.181-6.12.157-.137h5.623a.372.372 0 01.238.093.77.77 0 01.187.23c.05.094.085.195.107.299a.671.671 0 010 .289l-.479 2.457a.67.67 0 01-.273.3 2.373 2.373 0 01-.454.225 3.68 3.68 0 01-.887.21l.029.098.458.774h.733l.117.147-.194 1.087-.177.147zm1.21-3.399l.4-2.046a1.1 1.1 0 01.124-.29 1.66 1.66 0 01.488-.528.505.505 0 01.279-.093h5.398l.068.124-.211 1.11-.124.138h-4.539l-.215 1.122h3.915a.37.37 0 01.24.093.757.757 0 01.185.23c.049.094.086.195.108.298.02.096.02.194 0 .29l-.401 2.046a.98.98 0 01-.124.294 1.808 1.808 0 01-.22.294c-.08.089-.173.166-.274.23a.513.513 0 01-.273.093h-5.4l-.05-.137.216-1.107.106-.137h4.54l.215-1.107h-3.915a.365.365 0 01-.248-.092.773.773 0 01-.181-.235 1.065 1.065 0 01-.102-.3.824.824 0 01-.005-.29z" fill="#fff"/></g><defs><clipPath id="clip0_5202_4502"><rect width="105.536" height="28.374" fill="#fff" transform="translate(0 .5)"/></clipPath></defs></svg>